<?xml version="1.0" encoding="UTF-8" standalone="no"?>
<svg
   xmlns:dc="http://purl.org/dc/elements/1.1/"
   xmlns:cc="http://creativecommons.org/ns#"
   xmlns:rdf="http://www.w3.org/1999/02/22-rdf-syntax-ns#"
   xmlns:svg="http://www.w3.org/2000/svg"
   xmlns="http://www.w3.org/2000/svg"
   viewBox="0 0 348.84751 105.57"
   version="1.1"
   id="svg13"
   width="348.8475"
   height="105.57">
  <metadata
     id="metadata17">
    <rdf:RDF>
      <cc:Work
         rdf:about="">
        <dc:format>image/svg+xml</dc:format>
        <dc:type
           rdf:resource="http://purl.org/dc/dcmitype/StillImage" />
        <dc:title></dc:title>
      </cc:Work>
    </rdf:RDF>
  </metadata>
  <defs
     id="defs5">
    <clipPath
       id="a">
      <path
         d="M 0,143.4 H 337.638 V 0 H 0 Z"
         id="path2" />
    </clipPath>
  </defs>
  <g
     clip-path="url(#a)"
     transform="matrix(1.25,0,0,-1.25,-36.57625,142.4825)"
     id="g11">
    <path
       fill="#3d3d3c"
       d="m 240.39,53.58 h 8.696 c -0.432,2.508 -1.73,3.935 -4.24,3.935 -2.595,0 -3.936,-1.557 -4.455,-3.936 m 14.54,-4.24 h -14.67 c 0.35,-2.86 1.78,-4.59 4.76,-4.59 2.12,0 3.51,0.73 5.02,2.98 l 4.46,-2.21 c -1.6,-3.46 -5.01,-5.63 -9.34,-5.63 -7.57,0 -11.16,4.8 -11.16,11.24 0,6.4 4.03,11.29 10.95,11.29 6.28,0 10.13,-4.41 10.13,-11.25 0,-0.61 -0.04,-1.21 -0.13,-1.86 m -33.56,-1.42 v 24.88 h 6.32 v -24.9 c 0,-1.78 0.91,-2.64 2.25,-2.64 0.83,0 1.43,0.21 1.95,0.77 l 3.03,-4.5 c -1.21,-1.04 -2.85,-1.6 -4.93,-1.6 -5.88,0 -8.61,3.2 -8.61,8 m -14.6,-3.378 c 1.82,0 3.25,0.91 4.42,1.947 v 2.207 l -1.73,0.35 c -4.19,0.82 -5.32,-0.69 -5.32,-2.16 0,-1.42 1.08,-2.33 2.64,-2.33 m 10.56,9.56 V 40.35 h -5.32 l -0.302,2.12 c -2.12,-1.644 -4.543,-2.553 -7.14,-2.553 -4.11,0 -7.01,2.55 -7.01,6.617 0,4.023 3.59,7.31 10.556,6.23 l 3.07,-0.477 v 1.86 c 0,2.51 -2.12,3.505 -4.283,3.505 -1.903,0 -3.763,-0.734 -5.32,-2.594 l -3.764,3.59 c 2.38,2.598 5.15,3.765 9.69,3.765 5.668,0 9.82,-2.55 9.82,-8.304 m -20.31,-12.59 c -1.21,-1.04 -2.852,-1.6 -4.93,-1.6 -5.882,0 -8.61,3.2 -8.61,8 v 9.34 h -2.6 v 4.71 h 2.597 v 7.35 h 6.32 v -7.36 h 5.4 v -4.71 h -5.41 v -9.39 c 0,-1.78 0.91,-2.64 2.25,-2.64 0.82,0 1.43,0.21 1.946,0.77 l 3.03,-4.5 z m -25.22,-1.17 h 6.32 v 21.63 h -6.32 V 40.34 Z m 10.93,44.28 c -2.12,0 -3.94,1.38 -4.67,3.46 v 4.5 c 0.738,2.07 2.55,3.5 4.67,3.5 3.03,0 5.06,-2.56 5.06,-5.76 0,-3.2 -2.03,-5.71 -5.06,-5.71 m 1.25,16.96 c -2.42,0 -4.41,-0.86 -5.92,-2.33 v 1.9 h -6.23 V 72.42 c 0.87,0.7 1.96,1.125 3.13,1.125 1.17,0 2.24,-0.397 3.1,-1.05 v 8.93 c 1.515,-1.47 3.505,-2.336 5.927,-2.336 5.88,0 10.033,4.93 10.033,11.24 0,6.31 -4.155,11.25 -10.04,11.25 m -5.432,-34.17 c 0,1.92 -1.646,3.55 -3.59,3.55 -1.92,0 -3.55,-1.63 -3.55,-3.55 0,-1.92 1.63,-3.55 3.55,-3.55 1.944,0 3.59,1.63 3.59,3.55 M 160.8,48.87 v 4.58 c -0.78,2.03 -2.55,3.46 -4.63,3.46 -3.07,0 -5.06,-2.56 -5.06,-5.76 0,-3.2 1.99,-5.71 5.06,-5.71 2.08,0 3.85,1.38 4.63,3.42 m 6.27,13.11 V 40.43 c 0,-6.576 -4.46,-10.9 -11.12,-10.9 -2.42,0 -4.457,0.475 -6.27,1.297 v 6.012 c 1.73,-1.3 3.72,-2.12 6.32,-2.12 2.6,0 4.81,1.81 4.81,5.71 v 1.81 c -1.52,-1.47 -3.51,-2.34 -5.89,-2.34 -5.924,0 -10.034,4.93 -10.034,11.24 0,6.31 4.11,11.25 10.036,11.25 2.556,0 4.676,-1 6.23,-2.68 l 0.306,2.25 h 5.627 z M 135.45,40.34 h 6.315 v 21.63 h -6.314 V 40.34 Z m 3.16,23.52 c 1.944,0 3.59,1.6 3.59,3.55 0,1.95 -1.646,3.55 -3.59,3.55 -1.906,0 -3.55,-1.6 -3.55,-3.55 0,-1.95 1.64,-3.55 3.543,-3.55 m -13.24,-15 v 4.58 c -0.78,2.03 -2.55,3.46 -4.63,3.46 -3.07,0 -5.06,-2.556 -5.06,-5.757 0,-3.2 1.99,-5.71 5.06,-5.71 2.08,0 3.85,1.386 4.63,3.42 m 6.23,23.922 V 40.34 l -5.58,-0.044 -0.345,2.25 c -1.56,-1.644 -3.68,-2.64 -6.19,-2.64 -5.926,0 -10.036,4.933 -10.036,11.248 0,6.317 4.11,11.247 10.037,11.247 2.38,0 4.37,-0.86 5.88,-2.33 v 12.72 h 6.23 z M 293.68,92.75 h 8.695 c -0.433,2.51 -1.73,3.938 -4.24,3.938 -2.595,0 -3.937,-1.558 -4.455,-3.937 m 14.535,-4.24 H 293.55 c 0.348,-2.85 1.775,-4.58 4.76,-4.58 2.12,0 3.504,0.74 5.018,2.99 l 4.455,-2.2 c -1.6,-3.46 -5.018,-5.62 -9.344,-5.62 -7.57,0 -11.16,4.8 -11.16,11.25 0,6.41 4.02,11.29 10.94,11.29 6.27,0 10.12,-4.41 10.12,-11.24 0,-0.6 -0.05,-1.21 -0.13,-1.86 m -20.54,-7.83 c -1.21,-1.04 -2.86,-1.6 -4.93,-1.6 -5.89,0 -8.61,3.2 -8.61,8 v 9.35 h -2.6 v 4.718 h 2.59 v 7.35 h 6.31 v -7.35 h 5.4 v -4.72 h -5.41 v -9.39 c 0,-1.775 0.91,-2.64 2.25,-2.64 0.82,0 1.42,0.216 1.94,0.78 l 3.03,-4.5 z m -18.05,12.5 V 79.52 h -6.32 v 12.89 c 0,2.208 -1.65,3.678 -4.03,3.678 -2.47,0 -4.41,-1.773 -4.41,-4.023 V 79.518 h -6.32 v 21.63 h 5.66 l 0.34,-2.51 c 1.64,1.818 3.93,2.942 6.57,2.942 5.06,0 8.48,-3.287 8.48,-8.392 m -31.78,-13.67 h 6.313 v 21.63 h -6.317 V 79.518 Z M 241,103.04 c 1.945,0 3.59,1.6 3.59,3.55 0,1.95 -1.645,3.55 -3.59,3.55 -1.906,0 -3.55,-1.6 -3.55,-3.55 0,-1.95 1.645,-3.54 3.55,-3.54 M 220,92.76 h 8.695 c -0.433,2.51 -1.73,3.936 -4.24,3.936 -2.595,0 -3.936,-1.557 -4.455,-3.936 m 14.535,-4.24 H 219.87 c 0.346,-2.855 1.774,-4.585 4.76,-4.585 2.118,0 3.503,0.736 5.017,2.985 l 4.455,-2.205 c -1.6,-3.46 -5.02,-5.624 -9.345,-5.624 -7.57,0 -11.16,4.8 -11.16,11.24 0,6.4 4.023,11.29 10.944,11.29 6.27,0 10.12,-4.41 10.12,-11.25 0,-0.6 -0.04,-1.21 -0.13,-1.86 m -20.05,11.2 -2.64,-4.62 c -0.6,0.43 -1.55,1 -3.37,1 -2.59,0 -5.1,-2.16 -5.1,-5.75 v -10.8 h -6.31 v 21.63 h 5.67 l 0.35,-3.33 c 1.47,2.29 3.68,3.76 6.19,3.76 2.51,0 3.94,-0.6 5.24,-1.86 M 167.7,93.3 V 79.52 h -6.317 V 92.5 c 0,2.12 -1.43,3.59 -3.59,3.59 -2.25,0 -3.98,-1.775 -3.98,-4.025 V 79.518 h -6.32 v 12.978 c 0,2.12 -1.426,3.59 -3.545,3.59 -2.25,0 -4.025,-1.773 -4.025,-4.023 V 79.518 h -6.32 v 21.63 h 5.664 l 0.303,-2.293 c 1.51,1.687 3.63,2.725 6.14,2.725 2.983,0 5.362,-1.254 6.75,-3.374 1.684,2.076 4.193,3.374 7.134,3.374 4.89,0 8.09,-3.287 8.09,-8.306 m -51.82,-0.518 h 8.69 c -0.43,2.51 -1.73,3.936 -4.24,3.936 -2.595,0 -3.936,-1.557 -4.455,-3.936 m 14.53,-4.24 h -14.66 c 0.34,-2.855 1.77,-4.585 4.76,-4.585 2.12,0 3.5,0.74 5.02,2.99 l 4.45,-2.2 c -1.6,-3.46 -5.02,-5.62 -9.35,-5.62 -7.57,0 -11.16,4.8 -11.16,11.25 0,6.4 4.025,11.29 10.946,11.29 6.28,0 10.13,-4.41 10.13,-11.24 0,-0.6 -0.046,-1.21 -0.13,-1.86"
       id="path7"
       style="fill:#367591;fill-opacity:1" />
    <path
       fill="#de3a23"
       d="m 79.69,51.84 c 8.107,2.136 13.768,9.48 13.768,17.856 0,8.376 -5.66,15.72 -13.768,17.857 -1.693,0.444 -3.423,-0.564 -3.87,-2.254 -0.445,-1.7 0.565,-3.43 2.256,-3.87 5.328,-1.41 9.05,-6.23 9.05,-11.74 0,-5.51 -3.722,-10.33 -9.05,-11.74 -1.69,-0.45 -2.7,-2.18 -2.255,-3.87 0.38,-1.42 1.66,-2.36 3.06,-2.36 0.27,0 0.54,0.03 0.81,0.1 m -6.98,2.25 c 0.45,1.69 -0.56,3.42 -2.25,3.87 -5.33,1.4 -9.05,6.23 -9.05,11.73 0,5.5 3.719,10.331 9.049,11.731 1.69,0.444 2.7,2.176 2.26,3.87 -0.44,1.69 -2.17,2.7 -3.87,2.252 -8.1,-2.14 -13.76,-9.48 -13.76,-17.86 0,-8.38 5.66,-15.72 13.77,-17.86 0.27,-0.07 0.54,-0.103 0.81,-0.103 1.4,0 2.69,0.94 3.06,2.36 m 1.83,16.08 c 0,1.75 -1.416,3.16 -3.164,3.16 h -4.01 c -1.75,0 -3.17,-1.42 -3.17,-3.168 0,-1.75 1.42,-3.17 3.166,-3.17 h 4.01 c 1.75,0 3.17,1.416 3.17,3.165 m -32.59,-27 c 1.42,1.02 1.745,3 0.725,4.42 -4.652,6.475 -7.112,14.13 -7.112,22.133 0,20.94 17.036,37.974 37.975,37.974 7.115,0 14.05,-1.98 20.055,-5.72 1.482,-0.927 3.437,-0.474 4.362,1.01 0.924,1.486 0.47,3.44 -1.014,4.363 -7.01,4.37 -15.103,6.68 -23.402,6.68 -24.43,0 -44.3,-19.876 -44.3,-44.307 0,-9.338 2.88,-18.27 8.31,-25.83 0.62,-0.86 1.59,-1.32 2.58,-1.32 0.64,0 1.28,0.194 1.84,0.595 m 27.36,-4.35 c -0.16,0 -0.32,0.01 -0.48,0.04 -15.12,2.29 -26.52,15.56 -26.52,30.88 0,15.29 11.38,28.56 26.47,30.87 1.73,0.26 3.35,-0.92 3.61,-2.65 0.27,-1.72 -0.92,-3.34 -2.65,-3.61 -12.03,-1.85 -21.1,-12.42 -21.1,-24.61 0,-12.21 9.09,-22.79 21.14,-24.61 1.73,-0.26 2.92,-1.878 2.66,-3.607 -0.24,-1.564 -1.59,-2.69 -3.13,-2.69"
       id="path9"
       style="fill:#d6084f;fill-opacity:1" />
  </g>
</svg>
