<svg xml:space="preserve" width="431.002" height="166.1" xmlns:xlink="http://www.w3.org/1999/xlink" xmlns="http://www.w3.org/2000/svg"><g transform="translate(-56.7 -55.2)"><defs><path id="a" d="M68.6 67.2h358.6v144H68.6z"/></defs><clipPath id="b"><use xlink:href="#a" style="overflow:visible" width="100%" height="100%"/></clipPath><path d="M163.9 184.7c15.3-4 26-17.9 26-33.7 0-15.8-10.7-29.7-26-33.7-3.2-.8-6.5 1.1-7.3 4.3-.8 3.2 1.1 6.5 4.3 7.3 10.1 2.7 17.1 11.8 17.1 22.2 0 10.4-7 19.5-17.1 22.2-3.2.8-5.1 4.1-4.3 7.3.7 2.7 3.1 4.5 5.8 4.5.5-.2 1-.3 1.5-.4m-13.2-4.3c.8-3.2-1.1-6.5-4.3-7.3-10.1-2.7-17.1-11.8-17.1-22.2 0-10.4 7-19.5 17.1-22.2 3.2-.8 5.1-4.1 4.3-7.3-.8-3.2-4.1-5.1-7.3-4.3-15.3 4-26 17.9-26 33.7 0 15.8 10.7 29.7 26 33.7.5.1 1 .2 1.5.2 2.7.2 5.1-1.6 5.8-4.3m3.5-30.4c0-3.3-2.7-6-6-6h-7.6c-3.3 0-6 2.7-6 6s2.7 6 6 6h7.6c3.3 0 6-2.7 6-6m-61.6 51.1c2.7-1.9 3.3-5.7 1.4-8.4-8.8-12.2-13.4-26.7-13.4-41.8 0-39.6 32.2-71.8 71.8-71.8 13.4 0 26.5 3.7 37.9 10.8 2.8 1.8 6.5.9 8.2-1.9 1.7-2.8.9-6.5-1.9-8.2-13.2-8.3-28.5-12.6-44.2-12.6-46.2 0-83.7 37.6-83.7 83.7 0 17.6 5.4 34.5 15.7 48.8 1.2 1.6 3 2.5 4.9 2.5 1.1 0 2.3-.3 3.3-1.1m51.7 8.2c-.3 0-.6 0-.9-.1-28.6-4.3-50.1-29.4-50.1-58.3s21.5-54 50-58.3c3.3-.5 6.3 1.7 6.8 5s-1.7 6.3-5 6.8c-22.7 3.5-39.9 23.5-39.9 46.5 0 23.1 17.2 43.1 39.9 46.5 3.3.5 5.5 3.5 5 6.8-.3 3-2.9 5.1-5.8 5.1" clip-path="url(#b)" style="clip-path:url(#b);fill:#0d1f26"/><path d="M238.7 92.7h-15.5c.4 3 1.9 4.9 5 4.9 2.2 0 3.7-.8 5.3-3.2l4.7 2.3c-1.7 3.7-5.3 6-9.9 6-8 0-11.8-5.1-11.8-11.9 0-6.8 4.3-12 11.6-12 6.7 0 10.7 4.7 10.7 11.9 0 .7 0 1.3-.1 2m-15.4-4.4h9.2c-.5-2.7-1.8-4.2-4.5-4.2s-4.2 1.6-4.7 4.2m54.9-.6v14.6h-6.7V88.5c0-2.2-1.5-3.8-3.8-3.8-2.4 0-4.2 1.9-4.2 4.3v13.3h-6.7V88.5c0-2.2-1.5-3.8-3.8-3.8-2.4 0-4.3 1.9-4.3 4.3v13.3H242V79.4h6l.3 2.4c1.6-1.8 3.8-2.9 6.5-2.9 3.2 0 5.7 1.3 7.2 3.6 1.8-2.2 4.4-3.6 7.6-3.6 5.2 0 8.6 3.5 8.6 8.8m49.6-6.8-2.8 4.9c-.6-.5-1.6-1.1-3.6-1.1-2.7 0-5.4 2.3-5.4 6.1v11.4h-6.7V79.3h6l.4 3.5c1.6-2.4 3.9-4 6.6-4 2.7 0 4.1.7 5.5 2.1M349 92.7h-15.5c.4 3 1.9 4.9 5 4.9 2.2 0 3.7-.8 5.3-3.2l4.7 2.3c-1.7 3.7-5.3 6-9.9 6-8 0-11.8-5.1-11.8-11.9 0-6.8 4.3-12 11.6-12 6.6 0 10.7 4.7 10.7 11.9 0 .7 0 1.4-.1 2m-15.4-4.5h9.2c-.5-2.7-1.8-4.2-4.5-4.2-2.7.1-4.1 1.7-4.7 4.2m22.3-10.8c2.1 0 3.8-1.7 3.8-3.8 0-2.1-1.7-3.8-3.8-3.8-2 0-3.8 1.7-3.8 3.8 0 2.1 1.7 3.8 3.8 3.8m-3.4 24.9h6.7V79.4h-6.7zm33.7-14.5v14.5h-6.7V88.6c0-2.3-1.7-3.9-4.3-3.9-2.6 0-4.7 1.9-4.7 4.3v13.3h-6.7V79.4h6l.4 2.7c1.7-1.9 4.2-3.1 7-3.1 5.3-.1 8.9 3.4 9 8.8m19.1 13.2c-1.3 1.1-3 1.7-5.2 1.7-6.2 0-9.1-3.4-9.1-8.5v-9.9h-2.8v-5h2.7v-7.8h6.7v7.8h5.7v5h-5.7v9.9c0 1.9 1 2.8 2.4 2.8.9 0 1.5-.2 2.1-.8zm21.7-8.2h-15.5c.4 3 1.9 4.9 5 4.9 2.2 0 3.7-.8 5.3-3.2l4.7 2.3c-1.7 3.7-5.3 6-9.9 6-8 0-11.8-5.1-11.8-11.9 0-6.8 4.3-12 11.6-12 6.6 0 10.7 4.7 10.7 11.9.1.6 0 1.2-.1 2m-15.3-4.5h9.2c-.5-2.7-1.8-4.2-4.5-4.2-2.8 0-4.2 1.6-4.7 4.2M240 109.4v34.4h-5.9l-.4-2.4c-1.7 1.7-3.9 2.8-6.6 2.8-6.3 0-10.6-5.2-10.6-11.9s4.4-11.9 10.6-11.9c2.5 0 4.6.9 6.2 2.5v-13.5zm-6.6 25.4v-4.9c-.8-2.2-2.7-3.7-4.9-3.7-3.3 0-5.4 2.7-5.4 6.1 0 3.4 2.1 6 5.4 6 2.2.1 4-1.4 4.9-3.5m14-15.9c2.1 0 3.8-1.7 3.8-3.8 0-2.1-1.7-3.8-3.8-3.8-2 0-3.8 1.7-3.8 3.8 0 2.1 1.8 3.8 3.8 3.8m-3.4 24.9h6.7v-22.9H244Zm33.5-22.9v22.8c0 7-4.7 11.5-11.8 11.5-2.6 0-4.7-.5-6.6-1.4v-6.4c1.8 1.4 3.9 2.2 6.7 2.2 2.8 0 5.1-1.9 5.1-6v-1.9c-1.6 1.6-3.7 2.5-6.2 2.5-6.3 0-10.6-5.2-10.6-11.9s4.4-11.9 10.6-11.9c2.7 0 5 1.1 6.6 2.8l.3-2.4zm-6.6 13.8v-4.9c-.8-2.2-2.7-3.7-4.9-3.7-3.3 0-5.4 2.7-5.4 6.1 0 3.4 2.1 6 5.4 6 2.2.2 4.1-1.3 4.9-3.5m18.8-19.6c0-2-1.7-3.8-3.8-3.8-2 0-3.8 1.7-3.8 3.8 0 2 1.7 3.8 3.8 3.8 2.1 0 3.8-1.8 3.8-3.8m5.8-36.2c-2.6 0-4.7.9-6.3 2.5v-2h-6.6v30.4c.9-.7 2.1-1.2 3.3-1.2 1.2 0 2.4.4 3.3 1.1v-9.5c1.6 1.6 3.7 2.5 6.3 2.5 6.2 0 10.6-5.2 10.6-11.9s-4.4-11.9-10.6-11.9m-1.3 18c-2.2 0-4.2-1.5-4.9-3.7v-4.8c.8-2.2 2.7-3.7 4.9-3.7 3.2 0 5.4 2.7 5.4 6.1-.1 3.4-2.2 6.1-5.4 6.1m-11.6 46.9h6.7v-22.9h-6.7zm26.7-1.3c-1.3 1.1-3 1.7-5.2 1.7-6.2 0-9.1-3.4-9.1-8.5v-9.9h-2.8v-5h2.8V113h6.7v7.8h5.7v5h-5.7v9.9c0 1.9 1 2.8 2.4 2.8.9 0 1.5-.2 2.1-.8zm21.5-13.3v14.6h-5.6l-.3-2.2c-2.2 1.7-4.8 2.7-7.6 2.7-4.4 0-7.4-2.7-7.4-7s3.8-7.7 11.2-6.6l3.3.5v-2c0-2.7-2.2-3.7-4.5-3.7-2 0-4 .8-5.6 2.7l-4-3.8c2.5-2.8 5.5-4 10.3-4 5.8 0 10.2 2.7 10.2 8.8m-11.2 10.1c1.9 0 3.4-1 4.7-2.1v-2.3l-1.8-.4c-4.4-.9-5.6.7-5.6 2.3-.1 1.6 1.1 2.5 2.7 2.5m15.5-3.5v-26.4h6.7v26.4c0 1.9 1 2.8 2.4 2.8.9 0 1.5-.2 2.1-.8l3.2 4.8c-1.3 1.1-3 1.7-5.2 1.7-6.3-.1-9.2-3.4-9.2-8.5m35.5-1.6h-15.5c.4 3 1.9 4.9 5 4.9 2.2 0 3.7-.8 5.3-3.2l4.7 2.3c-1.7 3.7-5.3 6-9.9 6-8 0-11.8-5.1-11.8-11.9 0-6.8 4.3-12 11.6-12 6.7 0 10.7 4.7 10.7 11.9.1.8 0 1.4-.1 2m-15.4-4.4h9.2c-.5-2.7-1.8-4.2-4.5-4.2s-4.1 1.6-4.7 4.2" clip-path="url(#b)" transform="matrix(1.23054 0 0 1.23054 -49.911 -16.091)" style="clip-path:url(#b);fill:#0d1f26"/></g><g aria-label="Offre RGPD" style="font-size:26.5644px;line-height:1.25;font-family:'Barlow Condensed';-inkscape-font-specification:'Barlow Condensed, ';fill:#0d1f26;stroke-width:1.22989"><path d="M218.207 192.693q-.24 0-.319-.212l-2.444-7.916q-.027-.08-.106-.08h-1.86q-.106 0-.106.106v7.837q0 .265-.266.265h-2.019q-.265 0-.265-.265v-18.064q0-.266.265-.266h4.756q1.354 0 2.39.664t1.594 1.886q.585 1.196.585 2.737 0 1.673-.691 2.922-.69 1.222-1.886 1.78-.08.08-.053.159l2.71 8.155.026.106q0 .186-.24.186zm-4.729-16.39q-.106 0-.106.106v5.95q0 .107.106.107h1.966q1.09 0 1.753-.824.664-.85.664-2.23 0-1.435-.664-2.259-.664-.85-1.753-.85zM227.265 192.906q-2.152 0-3.48-1.275-1.301-1.275-1.301-3.374v-9.723q0-2.098 1.301-3.373 1.328-1.275 3.48-1.275t3.48 1.275q1.328 1.275 1.328 3.4v1.116q0 .265-.265.265h-2.02q-.265 0-.265-.265v-1.17q0-1.088-.637-1.752-.611-.664-1.62-.664-1.01 0-1.648.664-.61.664-.61 1.753v9.776q0 1.089.61 1.753.638.664 1.647.664 1.01 0 1.62-.664.638-.664.638-1.753v-2.922q0-.107-.106-.107h-2.019q-.266 0-.266-.265v-1.647q0-.266.266-.266h4.41q.265 0 .265.266v4.914q0 2.099-1.328 3.374t-3.48 1.275zM239.99 174.072q2.045 0 3.293 1.487 1.276 1.461 1.276 3.852 0 2.338-1.222 3.772-1.222 1.435-3.215 1.435h-2.497q-.106 0-.106.106v7.704q0 .265-.266.265h-2.019q-.265 0-.265-.265v-18.09q0-.266.265-.266zm-.399 8.5q1.09 0 1.753-.823.664-.85.664-2.285 0-1.46-.664-2.31-.664-.878-1.753-.878h-1.966q-.106 0-.106.107v6.083q0 .106.106.106zM247.242 192.693q-.266 0-.266-.265v-18.064q0-.266.266-.266h4.356q2.205 0 3.507 1.355 1.301 1.355 1.301 3.666v8.554q0 2.31-1.301 3.665-1.302 1.355-3.507 1.355zm2.284-2.31q0 .105.106.105l1.94-.026q1.009 0 1.62-.77.61-.797.637-2.152v-8.288q0-1.355-.61-2.152-.611-.797-1.647-.797h-1.94q-.106 0-.106.106z" style="font-weight:500;font-stretch:condensed;-inkscape-font-specification:'Barlow Condensed, Medium Condensed'" transform="translate(-51.025 -39.059)"/></g></svg>
