<?xml version="1.0" encoding="UTF-8" standalone="no"?>
<svg
   xmlns:dc="http://purl.org/dc/elements/1.1/"
   xmlns:cc="http://creativecommons.org/ns#"
   xmlns:rdf="http://www.w3.org/1999/02/22-rdf-syntax-ns#"
   xmlns:svg="http://www.w3.org/2000/svg"
   xmlns="http://www.w3.org/2000/svg"
   xmlns:xlink="http://www.w3.org/1999/xlink"
   xmlns:sodipodi="http://sodipodi.sourceforge.net/DTD/sodipodi-0.dtd"
   xmlns:inkscape="http://www.inkscape.org/namespaces/inkscape"
   version="1.1"
   id="Calque_1"
   x="0px"
   y="0px"
   viewBox="0 0 130.68773 142.10001"
   xml:space="preserve"
   width="130.68773"
   height="142.10001"
   sodipodi:docname="logo-footer.svg"
   inkscape:version="1.0.1 (3bc2e813f5, 2020-09-07)"><sodipodi:namedview
   pagecolor="#ffffff"
   bordercolor="#666666"
   borderopacity="1"
   objecttolerance="10"
   gridtolerance="10"
   guidetolerance="10"
   inkscape:pageopacity="0"
   inkscape:pageshadow="2"
   inkscape:window-width="1920"
   inkscape:window-height="1026"
   id="namedview12"
   showgrid="false"
   inkscape:zoom="4.5390568"
   inkscape:cx="65.343864"
   inkscape:cy="71.050003"
   inkscape:window-x="0"
   inkscape:window-y="0"
   inkscape:window-maximized="1"
   inkscape:current-layer="Calque_1" /><metadata
   id="metadata109"><rdf:RDF><cc:Work
       rdf:about=""><dc:format>image/svg+xml</dc:format><dc:type
         rdf:resource="http://purl.org/dc/dcmitype/StillImage" /><dc:title></dc:title></cc:Work></rdf:RDF></metadata><defs
   id="defs107" />
<style
   type="text/css"
   id="style2">
	.st0{clip-path:url(#SVGID_2_);fill:#D6084F;}
	.st1{clip-path:url(#SVGID_2_);fill:#367591;}
</style>
<g
   id="g102"
   transform="translate(-68.7,-67.2)">
	<defs
   id="defs5">
		<rect
   id="SVGID_1_"
   x="68.599998"
   y="67.199997"
   width="358.60001"
   height="144" />
	</defs>
	<clipPath
   id="SVGID_2_">
		<use
   xlink:href="#SVGID_1_"
   style="overflow:visible"
   id="use7"
   x="0"
   y="0"
   width="100%"
   height="100%" />
	</clipPath>
	<path
   class="st0"
   d="m 163.9,184.7 c 15.3,-4 26,-17.9 26,-33.7 0,-15.8 -10.7,-29.7 -26,-33.7 -3.2,-0.8 -6.5,1.1 -7.3,4.3 -0.8,3.2 1.1,6.5 4.3,7.3 10.1,2.7 17.1,11.8 17.1,22.2 0,10.4 -7,19.5 -17.1,22.2 -3.2,0.8 -5.1,4.1 -4.3,7.3 0.7,2.7 3.1,4.5 5.8,4.5 0.5,-0.2 1,-0.3 1.5,-0.4 m -13.2,-4.3 c 0.8,-3.2 -1.1,-6.5 -4.3,-7.3 -10.1,-2.7 -17.1,-11.8 -17.1,-22.2 0,-10.4 7,-19.5 17.1,-22.2 3.2,-0.8 5.1,-4.1 4.3,-7.3 -0.8,-3.2 -4.1,-5.1 -7.3,-4.3 -15.3,4 -26,17.9 -26,33.7 0,15.8 10.7,29.7 26,33.7 0.5,0.1 1,0.2 1.5,0.2 2.7,0.2 5.1,-1.6 5.8,-4.3 m 3.5,-30.4 c 0,-3.3 -2.7,-6 -6,-6 h -7.6 c -3.3,0 -6,2.7 -6,6 0,3.3 2.7,6 6,6 h 7.6 c 3.3,0 6,-2.7 6,-6 m -61.6,51.1 c 2.7,-1.9 3.3,-5.7 1.4,-8.4 -8.8,-12.2 -13.4,-26.7 -13.4,-41.8 0,-39.6 32.2,-71.8 71.8,-71.8 13.4,0 26.5,3.7 37.9,10.8 2.8,1.8 6.5,0.9 8.2,-1.9 1.7,-2.8 0.9,-6.5 -1.9,-8.2 -13.2,-8.3 -28.5,-12.6 -44.2,-12.6 -46.2,0 -83.7,37.6 -83.7,83.7 0,17.6 5.4,34.5 15.7,48.8 1.2,1.6 3,2.5 4.9,2.5 1.1,0 2.3,-0.3 3.3,-1.1 m 51.7,8.2 c -0.3,0 -0.6,0 -0.9,-0.1 -28.6,-4.3 -50.1,-29.4 -50.1,-58.3 0,-28.9 21.5,-54 50,-58.3 3.3,-0.5 6.3,1.7 6.8,5 0.5,3.3 -1.7,6.3 -5,6.8 -22.7,3.5 -39.9,23.5 -39.9,46.5 0,23.1 17.2,43.1 39.9,46.5 3.3,0.5 5.5,3.5 5,6.8 -0.3,3 -2.9,5.1 -5.8,5.1"
   clip-path="url(#SVGID_2_)"
   id="path10"
   style="fill:#f4f6f7;fill-opacity:1" />
	
	
	
	
	
	
	
	
	
	
	
	
	
	
	
	
	
	
	
	
	
	
	
	
	
	
	
	
	
	
	
	
	
	
	
	
	
	
	
	
	
	
	
	
	
</g>
</svg>
