<svg id="Layer_1" data-name="Layer 1" xmlns="http://www.w3.org/2000/svg" viewBox="0 0 156.85 200" width="107" height="136"><defs><style>.cls-1{fill:#ea4f5f;}.cls-2{fill:#00a7e7;}.cls-3{fill:#3a3a39;}</style></defs><title>logo</title><polygon class="cls-1" points="11.04 112.51 83.94 112.51 83.94 39.6 11.04 112.51"/><polygon class="cls-2" points="156.85 127.09 83.94 127.09 83.94 200 156.85 127.09"/><path class="cls-3" d="M8.88,146.94H17c4.15,0,6.83-1.9,6.83-6.27s-2.68-6.26-6.83-6.26H8.88Zm15.2,26.6L13.8,154.25H8.88v19.29H.57V127.09H17.46c9.36,0,14.78,5.14,14.78,13.58,0,6.69-3.38,11.33-9.43,13L33.5,173.54Z" transform="translate(-0.57)"/><path class="cls-3" d="M46.36,152.64H61.49c-.7-5.21-3-7.53-7.31-7.53s-7,2.67-7.82,7.53m-.14,6.19c.71,5.77,3.66,8.51,9.08,8.51A10.58,10.58,0,0,0,64.24,163l5.35,4.64c-3.94,4.79-8.45,6.76-14.5,6.76-11.05,0-17.45-6.9-17.45-17.87s6.26-18.3,16.46-18.3c9.86,0,15.84,6.9,15.84,18.09v2.53Z" transform="translate(-0.57)"/><path class="cls-3" d="M127.54,16.09c0-4.38,2.37-6.75,7.69-7.47V24.07c-5-.79-7.69-3.45-7.69-8M141.55,0H139C127.54,0,120.5,6.11,120.5,16.17c0,10.41,7.4,16.81,18.68,16.81s18.25-6.54,18.25-17.82c0-6.18-2-10.78-6.9-14.8l-4.74,5.46a10.81,10.81,0,0,1,4.45,9.12c0,5.54-2.8,8.55-8.69,9.27Zm15.88,57.05c0-10.28-4.31-15.81-11.57-15.81-6,0-9.13,3.23-10.2,10.78l-1.08,7.33c-.15.93-.5,3.88-3.09,3.88-2.23,0-3.81-2.23-3.81-6.47a12.76,12.76,0,0,1,3.95-9.56l-6-4.6c-3.31,3.45-5.17,8.34-5.17,14.3,0,9.34,4.38,14.8,11.56,14.8,5.68,0,9.13-3.37,10.21-10.77l1.07-7.33c.22-1.44.65-3.88,3.09-3.88s3.81,2.3,3.81,7c0,5-1.44,9-4.31,11.78l6,4.6c3.59-4,5.46-9.27,5.46-16.09m0,39.94c0-9.91-5.39-15.52-15-15.52H109.15v8.19h32.18c5.89,0,8.48,2.23,8.48,7.19s-2.59,7.18-8.48,7.18H109.15v8.48h33.26c9.63,0,15-5.6,15-15.52" transform="translate(-0.57)"/></svg>