<?xml version="1.0" standalone="no"?><!DOCTYPE svg PUBLIC "-//W3C//DTD SVG 1.1//EN" "http://www.w3.org/Graphics/SVG/1.1/DTD/svg11.dtd"><svg width="440" height="119" viewBox="0 0 440 119" aria-labelledby="title-lh" id="logo" role="img" version="1.1" xmlns="http://www.w3.org/2000/svg" xmlns:xlink="http://www.w3.org/1999/xlink" style="block-size:80px;border-block-end-color:rgb(13, 123, 198);border-block-start-color:rgb(13, 123, 198);border-bottom-color:rgb(13, 123, 198);border-inline-end-color:rgb(13, 123, 198);border-inline-start-color:rgb(13, 123, 198);border-left-color:rgb(13, 123, 198);border-right-color:rgb(13, 123, 198);border-top-color:rgb(13, 123, 198);caret-color:rgb(13, 123, 198);color:rgb(13, 123, 198);column-rule-color:rgb(13, 123, 198);font-size:36px;font-weight:700;height:80px;inline-size:290px;line-height:43.2px;outline-color:rgb(13, 123, 198);perspective-origin:145px 40px;text-align:center;text-decoration:none solid rgb(13, 123, 198);text-decoration-color:rgb(13, 123, 198);transform-origin:145px 40px;width:290px;-webkit-text-emphasis-color:rgb(13, 123, 198);-webkit-text-fill-color:rgb(13, 123, 198);-webkit-text-stroke-color:rgb(13, 123, 198);">
                        <title id="title-lh" lang="fr" style="block-size:auto;border-block-end-color:rgb(13, 123, 198);border-block-start-color:rgb(13, 123, 198);border-bottom-color:rgb(13, 123, 198);border-inline-end-color:rgb(13, 123, 198);border-inline-start-color:rgb(13, 123, 198);border-left-color:rgb(13, 123, 198);border-right-color:rgb(13, 123, 198);border-top-color:rgb(13, 123, 198);caret-color:rgb(13, 123, 198);color:rgb(13, 123, 198);column-rule-color:rgb(13, 123, 198);font-size:36px;font-weight:700;height:auto;inline-size:auto;line-height:43.2px;outline-color:rgb(13, 123, 198);overflow-x:visible;overflow-y:visible;perspective-origin:50% 50%;text-align:center;text-decoration:none solid rgb(13, 123, 198);text-decoration-color:rgb(13, 123, 198);transform-origin:0px 0px;vertical-align:baseline;width:auto;-webkit-text-emphasis-color:rgb(13, 123, 198);-webkit-text-fill-color:rgb(13, 123, 198);-webkit-text-stroke-color:rgb(13, 123, 198);">Conseil départemental du Bas-Rhin : les actualités &amp; services</title>
                        <path fill="#FFF" d="M0 14L424.9 0c8.6 0 15.5 8.2 15.5 14.6l-7.7 93c0 6.4-7 11.6-15.6 11.6l-392.5-4.6c-8.6 0-15.5-5.2-15.5-11.6L0 14z" style="block-size:auto;border-block-end-color:rgb(13, 123, 198);border-block-start-color:rgb(13, 123, 198);border-bottom-color:rgb(13, 123, 198);border-inline-end-color:rgb(13, 123, 198);border-inline-start-color:rgb(13, 123, 198);border-left-color:rgb(13, 123, 198);border-right-color:rgb(13, 123, 198);border-top-color:rgb(13, 123, 198);caret-color:rgb(13, 123, 198);color:rgb(13, 123, 198);column-rule-color:rgb(13, 123, 198);d:path(&quot;M 0 14 L 424.9 0 C 433.5 0 440.4 8.2 440.4 14.6 L 432.7 107.6 C 432.7 114 425.7 119.2 417.1 119.2 L 24.6 114.6 C 16 114.6 9.09998 109.4 9.09998 103 L 0 14 Z&quot;);fill:rgb(255, 255, 255);font-size:36px;font-weight:700;height:auto;inline-size:auto;line-height:43.2px;outline-color:rgb(13, 123, 198);overflow-x:visible;overflow-y:visible;perspective-origin:0px 0px;text-align:center;text-decoration:none solid rgb(13, 123, 198);text-decoration-color:rgb(13, 123, 198);transform-origin:0px 0px;vertical-align:baseline;width:auto;-webkit-text-emphasis-color:rgb(13, 123, 198);-webkit-text-fill-color:rgb(13, 123, 198);-webkit-text-stroke-color:rgb(13, 123, 198);"/>
                        <path fill="#1B181C" d="M275.2 81.9a47 47 0 0 1-6.1-.4c-1.5-.3-2-.7-2-2.4V60.4c0-1.7.5-2.1 2-2.4a56 56 0 0 1 6-.3c6.2 0 10.3 1.4 10.3 6.8v.5c0 2-1 3.7-2.5 4.5 1.5.8 2.6 2.6 2.6 4.6v.4c0 6.2-5.3 7.4-10.3 7.4m4-17c0-1.4-.7-2-3-2h-2.8v4.5h3c2.2 0 2.8-.8 2.8-2V65zm0 9.2c0-1.3-.6-2.3-2.7-2.3h-3v4.8h2.5c2.5 0 3.3-.9 3.3-2.3v-.2zm26.1 7.8h-4.6a.8.8 0 0 1-.8-.8v-1a9 9 0 0 1-5.8 1.8c-3.5 0-7-1.7-7-7v-.5c0-4.8 3-7 10.1-7h2.3V66c0-2.3-1.2-2.8-3.1-2.8a86 86 0 0 0-6.9.3h-.2c-.4 0-.7-.2-.7-.8v-3.3c0-.5.3-.8.8-1 1.5-.3 4.4-.8 7.1-.8 6 0 9.6 2.4 9.6 8.4v15c0 .5-.3.9-.8.9m-5.7-10.5h-2.4c-2.8 0-3.6 1-3.6 3v.4c0 1.7.9 2 2.6 2 1.2 0 2.4-.3 3.4-.8v-4.6zm15.9 10.5c-2.6 0-4.7-.4-6.4-.9-.3 0-.7-.2-.7-.6v-3.9c0-.4.2-.7.7-.6l6.4.4c1.6 0 2-.6 2-1.6 0-.6-.3-1-1.4-1.7l-4.6-2.7c-3-1.7-3.8-3.9-3.8-6.3 0-3.5 2-6.3 8.3-6.3 2.5 0 6 .4 7.2.8.3 0 .6.2.6.6v4c0 .3-.1.6-.6.5-1.3 0-5-.4-7.2-.4-1.2 0-1.6.4-1.6 1.1 0 .6.3.9 1.6 1.6l4.3 2.3c3 1.7 4.2 3.8 4.2 6.4 0 3.6-2.4 7.3-9 7.3" style="block-size:auto;border-block-end-color:rgb(13, 123, 198);border-block-start-color:rgb(13, 123, 198);border-bottom-color:rgb(13, 123, 198);border-inline-end-color:rgb(13, 123, 198);border-inline-start-color:rgb(13, 123, 198);border-left-color:rgb(13, 123, 198);border-right-color:rgb(13, 123, 198);border-top-color:rgb(13, 123, 198);caret-color:rgb(13, 123, 198);color:rgb(13, 123, 198);column-rule-color:rgb(13, 123, 198);d:path(&quot;M 275.2 81.9 A 47 47 0 0 1 269.1 81.5 C 267.6 81.2 267.1 80.8 267.1 79.1 V 60.4 C 267.1 58.7 267.6 58.3 269.1 58 A 56 56 0 0 1 275.1 57.7 C 281.3 57.7 285.4 59.1 285.4 64.5 V 65 C 285.4 67 284.4 68.7 282.9 69.5 C 284.4 70.3 285.5 72.1 285.5 74.1 V 74.5 C 285.5 80.7 280.2 81.9 275.2 81.9 M 279.2 64.9 C 279.2 63.5 278.5 62.9 276.2 62.9 H 273.4 V 67.4 H 276.4 C 278.6 67.4 279.2 66.6 279.2 65.4 V 65 Z M 279.2 74.1 C 279.2 72.8 278.6 71.8 276.5 71.8 H 273.5 V 76.6 H 276 C 278.5 76.6 279.3 75.7 279.3 74.3 V 74.1 Z M 305.3 81.9 H 300.7 A 0.8 0.8 0 0 1 299.9 81.1 V 80.1 A 9 9 0 0 1 294.1 81.9 C 290.6 81.9 287.1 80.2 287.1 74.9 V 74.4 C 287.1 69.6 290.1 67.4 297.2 67.4 H 299.5 V 66 C 299.5 63.7 298.3 63.2 296.4 63.2 A 86 86 0 0 0 289.5 63.5 H 289.3 C 288.9 63.5 288.6 63.3 288.6 62.7 V 59.4 C 288.6 58.9 288.9 58.6 289.4 58.4 C 290.9 58.1 293.8 57.6 296.5 57.6 C 302.5 57.6 306.1 60 306.1 66 V 81 C 306.1 81.5 305.8 81.9 305.3 81.9 M 299.6 71.4 H 297.2 C 294.4 71.4 293.6 72.4 293.6 74.4 V 74.8 C 293.6 76.5 294.5 76.8 296.2 76.8 C 297.4 76.8 298.6 76.5 299.6 76 V 71.4 Z M 315.5 81.9 C 312.9 81.9 310.8 81.5 309.1 81 C 308.8 81 308.4 80.8 308.4 80.4 V 76.5 C 308.4 76.1 308.6 75.8 309.1 75.9 L 315.5 76.3 C 317.1 76.3 317.5 75.7 317.5 74.7 C 317.5 74.1 317.2 73.7 316.1 73 L 311.5 70.3 C 308.5 68.6 307.7 66.4 307.7 64 C 307.7 60.5 309.7 57.7 316 57.7 C 318.5 57.7 322 58.1 323.2 58.5 C 323.5 58.5 323.8 58.7 323.8 59.1 V 63.1 C 323.8 63.4 323.7 63.7 323.2 63.6 C 321.9 63.6 318.2 63.2 316 63.2 C 314.8 63.2 314.4 63.6 314.4 64.3 C 314.4 64.9 314.7 65.2 316 65.9 L 320.3 68.2 C 323.3 69.9 324.5 72 324.5 74.6 C 324.5 78.2 322.1 81.9 315.5 81.9&quot;);fill:rgb(27, 24, 28);font-size:36px;font-weight:700;height:auto;inline-size:auto;line-height:43.2px;outline-color:rgb(13, 123, 198);overflow-x:visible;overflow-y:visible;perspective-origin:0px 0px;text-align:center;text-decoration:none solid rgb(13, 123, 198);text-decoration-color:rgb(13, 123, 198);transform-origin:0px 0px;vertical-align:baseline;width:auto;-webkit-text-emphasis-color:rgb(13, 123, 198);-webkit-text-fill-color:rgb(13, 123, 198);-webkit-text-stroke-color:rgb(13, 123, 198);"/>
                        <path fill="#E21C3F" d="M331.8 73.4h-5.5c-.3 0-.5-.3-.5-.7V69c0-.4.2-.6.5-.6h5.5c.3 0 .6.2.6.6v3.7c0 .4-.3.7-.6.7" style="block-size:auto;border-block-end-color:rgb(13, 123, 198);border-block-start-color:rgb(13, 123, 198);border-bottom-color:rgb(13, 123, 198);border-inline-end-color:rgb(13, 123, 198);border-inline-start-color:rgb(13, 123, 198);border-left-color:rgb(13, 123, 198);border-right-color:rgb(13, 123, 198);border-top-color:rgb(13, 123, 198);caret-color:rgb(13, 123, 198);color:rgb(13, 123, 198);column-rule-color:rgb(13, 123, 198);d:path(&quot;M 331.8 73.4 H 326.3 C 326 73.4 325.8 73.1 325.8 72.7 V 69 C 325.8 68.6 326 68.4 326.3 68.4 H 331.8 C 332.1 68.4 332.4 68.6 332.4 69 V 72.7 C 332.4 73.1 332.1 73.4 331.8 73.4&quot;);fill:rgb(226, 28, 63);font-size:36px;font-weight:700;height:auto;inline-size:auto;line-height:43.2px;outline-color:rgb(13, 123, 198);overflow-x:visible;overflow-y:visible;perspective-origin:0px 0px;text-align:center;text-decoration:none solid rgb(13, 123, 198);text-decoration-color:rgb(13, 123, 198);transform-origin:0px 0px;vertical-align:baseline;width:auto;-webkit-text-emphasis-color:rgb(13, 123, 198);-webkit-text-fill-color:rgb(13, 123, 198);-webkit-text-stroke-color:rgb(13, 123, 198);"/>
                        <path fill="#1B181C" d="M352.6 82h-6c-.3 0-.4-.4-.6-.7l-4.1-7.9h-1.8v7.9c0 .3-.3.6-.7.6h-5.2c-.3 0-.7-.3-.7-.6v-21c0-1.6.5-2 1.9-2.2 1.3-.2 4.5-.4 6.8-.4 6 0 10 1.9 10 7.8v.5c0 3.4-1.8 5.4-3.9 6.3l4.7 8.8.1.3c0 .3-.2.5-.5.5m-6.8-16.4c0-1.6-1-2.3-3.3-2.3h-2.4v5.2h2.3c2.5 0 3.4-.9 3.4-2.4v-.5zm28.3 16.4h-5.3a.7.7 0 0 1-.7-.7v-8.8h-6.8v8.8c0 .4-.3.7-.6.7h-5.4c-.3 0-.7-.3-.7-.7v-23c0-.3.4-.6.7-.6h5.4c.3 0 .6.3.6.6v8.4h6.8v-8.4c0-.3.3-.6.7-.6h5.3c.4 0 .7.3.7.6v23c0 .4-.3.7-.7.7m8.9 0h-5.3a.7.7 0 0 1-.6-.7v-23c0-.3.3-.6.6-.6h5.4c.3 0 .6.3.6.6v23c0 .4-.3.7-.6.7m22.5 0h-5a.9.9 0 0 1-.9-.9V67c0-2.9-.5-3.8-3-3.8a9 9 0 0 0-4 1.3V81c0 .5-.4.9-.8.9h-5.1a1 1 0 0 1-.9-.9V58.5c0-.5.4-.9.8-.9h4.7c.5 0 .9.4.9.9v1.2c2.3-1.6 4.1-2.1 6.8-2.1 6 0 7.4 4.2 7.4 9.5v14c0 .4-.4.8-.9.8" style="block-size:auto;border-block-end-color:rgb(13, 123, 198);border-block-start-color:rgb(13, 123, 198);border-bottom-color:rgb(13, 123, 198);border-inline-end-color:rgb(13, 123, 198);border-inline-start-color:rgb(13, 123, 198);border-left-color:rgb(13, 123, 198);border-right-color:rgb(13, 123, 198);border-top-color:rgb(13, 123, 198);caret-color:rgb(13, 123, 198);color:rgb(13, 123, 198);column-rule-color:rgb(13, 123, 198);d:path(&quot;M 352.6 82 H 346.6 C 346.3 82 346.2 81.6 346 81.3 L 341.9 73.4 H 340.1 V 81.3 C 340.1 81.6 339.8 81.9 339.4 81.9 H 334.2 C 333.9 81.9 333.5 81.6 333.5 81.3 V 60.3 C 333.5 58.7 334 58.3 335.4 58.1 C 336.7 57.9 339.9 57.7 342.2 57.7 C 348.2 57.7 352.2 59.6 352.2 65.5 V 66 C 352.2 69.4 350.4 71.4 348.3 72.3 L 353 81.1 L 353.1 81.4 C 353.1 81.7 352.9 81.9 352.6 81.9 M 345.8 65.5 C 345.8 63.9 344.8 63.2 342.5 63.2 H 340.1 V 68.4 H 342.4 C 344.9 68.4 345.8 67.5 345.8 66 V 65.5 Z M 374.1 81.9 H 368.8 A 0.7 0.7 0 0 1 368.1 81.2 V 72.4 H 361.3 V 81.2 C 361.3 81.6 361 81.9 360.7 81.9 H 355.3 C 355 81.9 354.6 81.6 354.6 81.2 V 58.2 C 354.6 57.9 355 57.6 355.3 57.6 H 360.7 C 361 57.6 361.3 57.9 361.3 58.2 V 66.6 H 368.1 V 58.2 C 368.1 57.9 368.4 57.6 368.8 57.6 H 374.1 C 374.5 57.6 374.8 57.9 374.8 58.2 V 81.2 C 374.8 81.6 374.5 81.9 374.1 81.9 M 383 81.9 H 377.7 A 0.7 0.7 0 0 1 377.1 81.2 V 58.2 C 377.1 57.9 377.4 57.6 377.7 57.6 H 383.1 C 383.4 57.6 383.7 57.9 383.7 58.2 V 81.2 C 383.7 81.6 383.4 81.9 383.1 81.9 M 405.6 81.9 H 400.6 A 0.9 0.9 0 0 1 399.7 81 V 67 C 399.7 64.1 399.2 63.2 396.7 63.2 A 9 9 0 0 0 392.7 64.5 V 81 C 392.7 81.5 392.3 81.9 391.9 81.9 H 386.8 A 1 1 0 0 1 385.9 81 V 58.5 C 385.9 58 386.3 57.6 386.7 57.6 H 391.4 C 391.9 57.6 392.3 58 392.3 58.5 V 59.7 C 394.6 58.1 396.4 57.6 399.1 57.6 C 405.1 57.6 406.5 61.8 406.5 67.1 V 81.1 C 406.5 81.5 406.1 81.9 405.6 81.9&quot;);fill:rgb(27, 24, 28);font-size:36px;font-weight:700;height:auto;inline-size:auto;line-height:43.2px;outline-color:rgb(13, 123, 198);overflow-x:visible;overflow-y:visible;perspective-origin:0px 0px;text-align:center;text-decoration:none solid rgb(13, 123, 198);text-decoration-color:rgb(13, 123, 198);transform-origin:0px 0px;vertical-align:baseline;width:auto;-webkit-text-emphasis-color:rgb(13, 123, 198);-webkit-text-fill-color:rgb(13, 123, 198);-webkit-text-stroke-color:rgb(13, 123, 198);"/>
                        <defs style="block-size:auto;border-block-end-color:rgb(13, 123, 198);border-block-start-color:rgb(13, 123, 198);border-bottom-color:rgb(13, 123, 198);border-inline-end-color:rgb(13, 123, 198);border-inline-start-color:rgb(13, 123, 198);border-left-color:rgb(13, 123, 198);border-right-color:rgb(13, 123, 198);border-top-color:rgb(13, 123, 198);caret-color:rgb(13, 123, 198);color:rgb(13, 123, 198);column-rule-color:rgb(13, 123, 198);font-size:36px;font-weight:700;height:auto;inline-size:auto;line-height:43.2px;outline-color:rgb(13, 123, 198);overflow-x:visible;overflow-y:visible;perspective-origin:0px 0px;text-align:center;text-decoration:none solid rgb(13, 123, 198);text-decoration-color:rgb(13, 123, 198);transform-origin:0px 0px;vertical-align:baseline;width:auto;-webkit-text-emphasis-color:rgb(13, 123, 198);-webkit-text-fill-color:rgb(13, 123, 198);-webkit-text-stroke-color:rgb(13, 123, 198);">
                            <path id="a" d="M237.2 44.4a11 11 0 0 1-6.3 3.3c-2.1.3-3.4.5-5.8-.7l-3.3-2c-1-.7-2.3 2.7-3 4.4-.6 1.7.3 2.4 3 5.2 2.9 2.8-.8 2 2.4 3.6 1.6.7 2.1.2 2.5-.2.4-.5.8-1 2.1-.2 2.6 1.7-.3 2.8-.2 4.5 0 1.6-2 4-3.5 6.5-1.5 2.3-2 7.6.7 10.2 2.3 2.4 7.1 6.6 14.4 9.8 0 0 .6.2.4-.3l-.5-2a57.9 57.9 0 0 1 8-43.8s.3-.5-.1-1a7.1 7.1 0 0 0-3.2-1.7l-1-.1c-3 0-5.2 3-6.6 4.5" style="block-size:auto;border-block-end-color:rgb(13, 123, 198);border-block-start-color:rgb(13, 123, 198);border-bottom-color:rgb(13, 123, 198);border-inline-end-color:rgb(13, 123, 198);border-inline-start-color:rgb(13, 123, 198);border-left-color:rgb(13, 123, 198);border-right-color:rgb(13, 123, 198);border-top-color:rgb(13, 123, 198);caret-color:rgb(13, 123, 198);color:rgb(13, 123, 198);column-rule-color:rgb(13, 123, 198);d:path(&quot;M 237.2 44.4 A 11 11 0 0 1 230.9 47.7 C 228.8 48 227.5 48.2 225.1 47 L 221.8 45 C 220.8 44.3 219.5 47.7 218.8 49.4 C 218.2 51.1 219.1 51.8 221.8 54.6 C 224.7 57.4 221 56.6 224.2 58.2 C 225.8 58.9 226.3 58.4 226.7 58 C 227.1 57.5 227.5 57 228.8 57.8 C 231.4 59.5 228.5 60.6 228.6 62.3 C 228.6 63.9 226.6 66.3 225.1 68.8 C 223.6 71.1 223.1 76.4 225.8 79 C 228.1 81.4 232.9 85.6 240.2 88.8 C 240.2 88.8 240.8 89 240.6 88.5 L 240.1 86.5 A 57.9 57.9 0 0 1 248.1 42.7 S 248.4 42.2 248 41.7 A 7.1 7.1 0 0 0 244.8 40 L 243.8 39.9 C 240.8 39.9 238.6 42.9 237.2 44.4&quot;);font-size:36px;font-weight:700;height:auto;inline-size:auto;line-height:43.2px;outline-color:rgb(13, 123, 198);overflow-x:visible;overflow-y:visible;perspective-origin:0px 0px;text-align:center;text-decoration:none solid rgb(13, 123, 198);text-decoration-color:rgb(13, 123, 198);transform-origin:0px 0px;vertical-align:baseline;width:auto;-webkit-text-emphasis-color:rgb(13, 123, 198);-webkit-text-fill-color:rgb(13, 123, 198);-webkit-text-stroke-color:rgb(13, 123, 198);"/>
                        </defs>
                        <clipPath id="b" style="block-size:auto;border-block-end-color:rgb(13, 123, 198);border-block-start-color:rgb(13, 123, 198);border-bottom-color:rgb(13, 123, 198);border-inline-end-color:rgb(13, 123, 198);border-inline-start-color:rgb(13, 123, 198);border-left-color:rgb(13, 123, 198);border-right-color:rgb(13, 123, 198);border-top-color:rgb(13, 123, 198);caret-color:rgb(13, 123, 198);color:rgb(13, 123, 198);column-rule-color:rgb(13, 123, 198);font-size:36px;font-weight:700;height:auto;inline-size:auto;line-height:43.2px;outline-color:rgb(13, 123, 198);overflow-x:visible;overflow-y:visible;perspective-origin:0px 0px;text-align:center;text-decoration:none solid rgb(13, 123, 198);text-decoration-color:rgb(13, 123, 198);transform-origin:0px 0px;vertical-align:baseline;width:auto;-webkit-text-emphasis-color:rgb(13, 123, 198);-webkit-text-fill-color:rgb(13, 123, 198);-webkit-text-stroke-color:rgb(13, 123, 198);">
                            <use xlink:href="#a" overflow="visible" style="block-size:auto;border-block-end-color:rgb(13, 123, 198);border-block-start-color:rgb(13, 123, 198);border-bottom-color:rgb(13, 123, 198);border-inline-end-color:rgb(13, 123, 198);border-inline-start-color:rgb(13, 123, 198);border-left-color:rgb(13, 123, 198);border-right-color:rgb(13, 123, 198);border-top-color:rgb(13, 123, 198);caret-color:rgb(13, 123, 198);color:rgb(13, 123, 198);column-rule-color:rgb(13, 123, 198);font-size:36px;font-weight:700;height:auto;inline-size:auto;line-height:43.2px;outline-color:rgb(13, 123, 198);overflow-x:visible;overflow-y:visible;perspective-origin:0px 0px;text-align:center;text-decoration:none solid rgb(13, 123, 198);text-decoration-color:rgb(13, 123, 198);transform-origin:0px 0px;vertical-align:baseline;width:auto;-webkit-text-emphasis-color:rgb(13, 123, 198);-webkit-text-fill-color:rgb(13, 123, 198);-webkit-text-stroke-color:rgb(13, 123, 198);"/>
                        </clipPath>
                        <linearGradient id="c" gradientUnits="userSpaceOnUse" x1="-86.8" y1="195.6" x2="-85.4" y2="195.6" gradientTransform="scale(-11.6915 11.6915) rotate(-6.3 -1780.1 -493.8)" style="block-size:auto;border-block-end-color:rgb(13, 123, 198);border-block-start-color:rgb(13, 123, 198);border-bottom-color:rgb(13, 123, 198);border-inline-end-color:rgb(13, 123, 198);border-inline-start-color:rgb(13, 123, 198);border-left-color:rgb(13, 123, 198);border-right-color:rgb(13, 123, 198);border-top-color:rgb(13, 123, 198);caret-color:rgb(13, 123, 198);color:rgb(13, 123, 198);column-rule-color:rgb(13, 123, 198);font-size:36px;font-weight:700;height:auto;inline-size:auto;line-height:43.2px;outline-color:rgb(13, 123, 198);overflow-x:visible;overflow-y:visible;perspective-origin:0px 0px;text-align:center;text-decoration:none solid rgb(13, 123, 198);text-decoration-color:rgb(13, 123, 198);transform:matrix(-11.6209, -1.28296, -1.28296, 11.6209, -507.84, -2318.66);transform-origin:0px 0px;vertical-align:baseline;width:auto;-webkit-text-emphasis-color:rgb(13, 123, 198);-webkit-text-fill-color:rgb(13, 123, 198);-webkit-text-stroke-color:rgb(13, 123, 198);">
                            <stop offset="0" stop-color="#b61e47" style="block-size:auto;border-block-end-color:rgb(13, 123, 198);border-block-start-color:rgb(13, 123, 198);border-bottom-color:rgb(13, 123, 198);border-inline-end-color:rgb(13, 123, 198);border-inline-start-color:rgb(13, 123, 198);border-left-color:rgb(13, 123, 198);border-right-color:rgb(13, 123, 198);border-top-color:rgb(13, 123, 198);caret-color:rgb(13, 123, 198);color:rgb(13, 123, 198);column-rule-color:rgb(13, 123, 198);font-size:36px;font-weight:700;height:auto;inline-size:auto;line-height:43.2px;outline-color:rgb(13, 123, 198);overflow-x:visible;overflow-y:visible;perspective-origin:50% 50%;stop-color:rgb(182, 30, 71);text-align:center;text-decoration:none solid rgb(13, 123, 198);text-decoration-color:rgb(13, 123, 198);transform-origin:0px 0px;vertical-align:baseline;width:auto;-webkit-text-emphasis-color:rgb(13, 123, 198);-webkit-text-fill-color:rgb(13, 123, 198);-webkit-text-stroke-color:rgb(13, 123, 198);"/>
                            <stop offset="1" stop-color="#e21d3f" style="block-size:auto;border-block-end-color:rgb(13, 123, 198);border-block-start-color:rgb(13, 123, 198);border-bottom-color:rgb(13, 123, 198);border-inline-end-color:rgb(13, 123, 198);border-inline-start-color:rgb(13, 123, 198);border-left-color:rgb(13, 123, 198);border-right-color:rgb(13, 123, 198);border-top-color:rgb(13, 123, 198);caret-color:rgb(13, 123, 198);color:rgb(13, 123, 198);column-rule-color:rgb(13, 123, 198);font-size:36px;font-weight:700;height:auto;inline-size:auto;line-height:43.2px;outline-color:rgb(13, 123, 198);overflow-x:visible;overflow-y:visible;perspective-origin:50% 50%;stop-color:rgb(226, 29, 63);text-align:center;text-decoration:none solid rgb(13, 123, 198);text-decoration-color:rgb(13, 123, 198);transform-origin:0px 0px;vertical-align:baseline;width:auto;-webkit-text-emphasis-color:rgb(13, 123, 198);-webkit-text-fill-color:rgb(13, 123, 198);-webkit-text-stroke-color:rgb(13, 123, 198);"/>
                        </linearGradient>
                        <path clip-path="url(#b)" fill="url(#c)" d="M248.1 92.3l-35.3-3.9 5.7-51.8 35.3 3.9z" style="block-size:auto;border-block-end-color:rgb(13, 123, 198);border-block-start-color:rgb(13, 123, 198);border-bottom-color:rgb(13, 123, 198);border-inline-end-color:rgb(13, 123, 198);border-inline-start-color:rgb(13, 123, 198);border-left-color:rgb(13, 123, 198);border-right-color:rgb(13, 123, 198);border-top-color:rgb(13, 123, 198);caret-color:rgb(13, 123, 198);clip-path:url(&quot;#b&quot;);color:rgb(13, 123, 198);column-rule-color:rgb(13, 123, 198);d:path(&quot;M 248.1 92.3 L 212.8 88.4 L 218.5 36.6 L 253.8 40.5 Z&quot;);fill:url(&quot;#c&quot;);font-size:36px;font-weight:700;height:auto;inline-size:auto;line-height:43.2px;outline-color:rgb(13, 123, 198);overflow-x:visible;overflow-y:visible;perspective-origin:0px 0px;text-align:center;text-decoration:none solid rgb(13, 123, 198);text-decoration-color:rgb(13, 123, 198);transform-origin:0px 0px;vertical-align:baseline;width:auto;-webkit-text-emphasis-color:rgb(13, 123, 198);-webkit-text-fill-color:rgb(13, 123, 198);-webkit-text-stroke-color:rgb(13, 123, 198);"/>
                        <path fill="#48BFEA" d="M262.6 32.2c0-.1.1-.2-.2-.1l-1.8.7s-.7.3-1.3.8a45.4 45.4 0 0 0-16.8 37 50 50 0 0 0 5.6 20.6s.3.5 1 .7c3.2 1 7.7 1.8 12 2.2 0 0 .7 0 .2-.4a45.1 45.1 0 0 1-12.6-28.8 44.8 44.8 0 0 1 13.9-32.7" style="block-size:auto;border-block-end-color:rgb(13, 123, 198);border-block-start-color:rgb(13, 123, 198);border-bottom-color:rgb(13, 123, 198);border-inline-end-color:rgb(13, 123, 198);border-inline-start-color:rgb(13, 123, 198);border-left-color:rgb(13, 123, 198);border-right-color:rgb(13, 123, 198);border-top-color:rgb(13, 123, 198);caret-color:rgb(13, 123, 198);color:rgb(13, 123, 198);column-rule-color:rgb(13, 123, 198);d:path(&quot;M 262.6 32.2 C 262.6 32.1 262.7 32 262.4 32.1 L 260.6 32.8 S 259.9 33.1 259.3 33.6 A 45.4 45.4 0 0 0 242.5 70.6 A 50 50 0 0 0 248.1 91.2 S 248.4 91.7 249.1 91.9 C 252.3 92.9 256.8 93.7 261.1 94.1 C 261.1 94.1 261.8 94.1 261.3 93.7 A 45.1 45.1 0 0 1 248.7 64.9 A 44.8 44.8 0 0 1 262.6 32.2&quot;);fill:rgb(72, 191, 234);font-size:36px;font-weight:700;height:auto;inline-size:auto;line-height:43.2px;outline-color:rgb(13, 123, 198);overflow-x:visible;overflow-y:visible;perspective-origin:0px 0px;text-align:center;text-decoration:none solid rgb(13, 123, 198);text-decoration-color:rgb(13, 123, 198);transform-origin:0px 0px;vertical-align:baseline;width:auto;-webkit-text-emphasis-color:rgb(13, 123, 198);-webkit-text-fill-color:rgb(13, 123, 198);-webkit-text-stroke-color:rgb(13, 123, 198);"/>
                        <path fill="#1B181C" d="M273 53.5l-2 .2c-1.5 0-3.2-.8-3.2-3.7v-1.7c0-3 1.7-3.7 3.1-3.7l2 .2c.2 0 .2 0 .2.2v.6l-.1.1-2-.1c-1.2 0-2.1.7-2.1 2.7V50c0 2 .9 2.7 2 2.7h2l.3.1v.5c0 .1-.1.2-.3.2m6.5-5.1c0-2-.9-2.8-2.2-2.8-1.3 0-2.1.8-2.1 2.8v1.5c0 2 .8 2.8 2.1 2.8s2.2-.8 2.2-2.8v-1.5zm-2.2 5.3c-1.9 0-3.2-1.1-3.2-3.8v-1.5c0-2.7 1.3-3.8 3.2-3.8 2 0 3.3 1.1 3.3 3.8v1.5c0 2.7-1.4 3.8-3.3 3.8m10.8-.1h-.7c-.2 0-.3 0-.4-.2l-3.7-7v7l-.2.2h-.7l-.2-.1V45c0-.2.2-.3.4-.3h.6c.4 0 .4 0 .5.2l3.7 7v-7l.2-.2h.7l.2.2v8.4c0 .1-.2.3-.4.3m4.4.1l-2-.2c-.2 0-.3 0-.3-.2v-.5l.2-.2 2 .1c1.5 0 1.9-.6 1.9-1.4 0-.6-.4-1-1.5-1.6l-1.1-.7c-1.1-.7-1.7-1.3-1.7-2.3 0-1.4 1-2 2.9-2h2c.2 0 .3.1.3.3v.5l-.2.2-2.1-.1c-1.2 0-1.8.3-1.8 1.1 0 .6.4 1 1.3 1.5l1.1.6c1.4.9 2 1.5 2 2.5 0 1.1-.7 2.4-3 2.4m9.3-.1h-2.3c-1.7 0-2.5-.5-2.5-2.1v-4.7c0-1.5.8-2.2 2.5-2.2a34 34 0 0 1 2.5.3v.6l-.2.1h-2.3c-1.3 0-1.5.3-1.5 1.2v1.7h3.7c.2 0 .3.1.3.2v.5c0 .1-.1.2-.3.2H298v2c0 1 .2 1.3 1.5 1.3h2.3l.2.1v.7l-.2.1m2.7 0h-.7l-.2-.2v-8.5s0-.2.2-.2h.7l.2.2v8.5l-.2.2m7 0h-2.3c-1.3 0-2.5-.2-2.5-2.1v-6.6s0-.2.2-.2h.6l.2.2v6.6c0 .9.3 1.2 1.5 1.2h2.3l.2.1v.6s0 .2-.2.2m9.2-5.3c0-2.1-1-2.7-2.5-2.7H317v7.1h1.3c1.4 0 2.5-.6 2.5-2.7v-1.7zm-2.5 5.4l-2.2-.1-.2-.3V45c0-.1 0-.2.2-.3h2.2c2.2 0 3.6 1 3.6 3.6V50c0 2.5-1.4 3.7-3.6 3.7m9.5-11.3l-1.4 1.5-.2.2h-.7v-.2l1.1-1.5.3-.2h.8l.1.1v.1m.6 11.2H326c-1.7 0-2.5-.5-2.5-2.1v-4.7c0-1.5.8-2.2 2.5-2.2a34.1 34.1 0 0 1 2.5.3v.6l-.2.1H326c-1.2 0-1.5.3-1.5 1.2v1.7h3.7c.2 0 .3.1.3.2v.5c0 .1-.1.2-.3.2h-3.7v2c0 1 .3 1.3 1.5 1.3h2.3l.2.1v.7l-.2.1m6.3-6.4c0-1.2-.7-1.7-2.3-1.7h-1.2v3.6h1.2c1.7 0 2.3-.5 2.3-1.7v-.2zm-2.3 2.9l-1.2-.1v3.4s0 .2-.2.2h-.6l-.2-.2V45c0-.2 0-.3.2-.3h2c2 0 3.4.6 3.4 2.5v.2c0 2-1.4 2.7-3.4 2.7m7.2-4.3c0-.2 0-.2-.2-.2-.1 0-.2 0-.3.2l-1 4h2.6l-1-4zm3 7.8h-.7s-.2 0-.2-.2l-.8-2.7h-3l-.8 2.7-.3.2h-.7s-.2 0-.2-.2l2.3-7.9c.2-.7.7-.9 1.2-.9.4 0 1 .2 1.2 1l2.2 7.7v.1c0 .1 0 .2-.2.2m6.2-6.4c0-1.2-.8-1.6-2.3-1.6h-1.3V49h1.3c1.5 0 2.3-.3 2.3-1.6v-.1zm1.2 6.4h-.7c-.2 0-.2 0-.3-.2l-2.2-3.5H345v3.5l-.2.2h-.7l-.2-.2V45c0-.2 0-.3.3-.3h2.1c1.9 0 3.4.6 3.4 2.5 0 1.4-.8 2.2-2 2.5l2.3 3.6v.1c0 .1 0 .2-.2.2m6.7-8H354v7.8s0 .2-.2.2h-.6c-.2 0-.3-.1-.3-.2v-7.8h-2.3c-.1 0-.2 0-.2-.2V45c0-.1 0-.2.2-.2h5.8c.1 0 .2 0 .2.2v.5c0 .2-.1.2-.2.2m6.2 7.9h-2.3c-1.7 0-2.6-.5-2.6-2.1v-4.7c0-1.5.9-2.2 2.6-2.2a34 34 0 0 1 2.4.3v.6l-.1.1h-2.3c-1.3 0-1.5.3-1.5 1.2v1.7h3.7l.2.2v.5c0 .1 0 .2-.2.2h-3.7v2c0 1 .2 1.3 1.5 1.3h2.3l.1.1v.8m8.6 0h-.5a.2.2 0 0 1-.3-.2v-7.1l-1.7 3.5c-.1.2-.3.3-.6.3h-.5c-.3 0-.4 0-.6-.3l-1.7-3.6v7.2l-.2.2h-.6a.2.2 0 0 1-.3-.2V45c0-.1.2-.3.4-.3h.8c.2 0 .3 0 .3.2l2 4.1.2.1h.1l2-4.2c0-.2.2-.2.4-.2h.7c.2 0 .4.2.4.3v8.4s-.1.2-.3.2m7 0H376c-1.7 0-2.6-.5-2.6-2.1v-4.7c0-1.5 1-2.2 2.6-2.2a34.2 34.2 0 0 1 2.5.3v.6l-.2.1H376c-1.3 0-1.5.3-1.5 1.2v1.7h3.7l.3.2v.5l-.3.2h-3.7v2c0 1 .2 1.3 1.5 1.3h2.3l.2.1v.7l-.2.1m7.7 0h-.8c-.2 0-.3 0-.3-.2l-3.7-7h-.1v7s0 .2-.2.2h-.6l-.2-.1V45c0-.2.1-.3.3-.3h.7c.3 0 .4 0 .5.2l3.6 7v-7l.3-.2h.6l.2.2v8.4c0 .1-.1.3-.3.3m7.3-8h-2.4v7.8s0 .2-.2.2h-.6c-.2 0-.2-.1-.2-.2v-7.8h-2.4c-.1 0-.2 0-.2-.2V45c0-.1 0-.2.2-.2h5.8c.1 0 .2 0 .2.2v.5c0 .2 0 .2-.2.2m3.6.1c0-.2-.1-.2-.3-.2 0 0-.2 0-.2.2l-1 4h2.6l-1.1-4zm3 7.8h-.7c-.1 0-.2 0-.2-.2l-.8-2.7H395l-.8 2.7-.2.2h-.7c-.1 0-.2 0-.2-.2l2.2-7.9c.2-.7.8-.9 1.2-.9.5 0 1 .2 1.3 1l2.2 7.7v.1c0 .1 0 .2-.2.2m6.2 0h-2.3c-1.3 0-2.5-.2-2.5-2.1v-6.6s0-.2.2-.2h.6l.2.2v6.6c0 .9.2 1.2 1.5 1.2h2.3l.2.1v.6s0 .2-.2.2M47.4 48.3c-1-3.4-3.7-3.9-5.3-3.9-1.6 0-4.3.5-5.3 4l-8.8 31v.5c0 .7.5 1.2 1.2 1.2H32c.6 0 1.1-.5 1.3-1l3-10.7h11.6l3 10.7c.2.6.7 1 1.3 1H55c.7 0 1.2-.5 1.2-1.2v-.5l-8.8-31zm-5.8 1.3c.1-.5.3-.5.5-.5.1 0 .3 0 .5.5l4.2 15.2h-9.4l4.2-15.2zm37.9 27h-9.2c-5 0-5.5-1.2-5.5-4.5v-26c0-.7-.6-1.3-1.4-1.3H61c-.8 0-1.4.6-1.4 1.3v26c0 8.2 5.4 9.3 10.6 9.3 4.3 0 8-.2 9.4-.4.5 0 .9-.6.9-1.1v-2.2c0-.6-.4-1-1-1zm17.2-15.3l-4.4-2.6c-3.5-2-5-3.4-5-5.4 0-3 1.6-4 6.6-4 2.7 0 6 0 8.2.2.8 0 1.3-.5 1.3-1.2v-2c0-.4-.1-1-1.2-1.3-1.7-.3-5.4-.6-8.3-.6-9.8 0-11.9 4.9-11.9 9 0 4.2 2.7 6.7 6.8 9.2l4.6 2.8c4.4 2.7 5.6 4 5.6 6 0 2.6-.9 5.2-6.9 5.2-2.2 0-5.6 0-7.8-.2H84c-.7 0-1.2.5-1.2 1.2v1.9c0 .8.3 1 1.2 1.3 2.2.3 4.7.6 8 .6 10.7 0 12.3-6.2 12.3-10 0-4-2.1-6.7-7.7-10zm29.2-13c-1-3.4-3.7-3.9-5.3-3.9-1.5 0-4.3.5-5.3 4l-8.8 31v.5c0 .7.5 1.2 1.2 1.2h2.8c.6 0 1.2-.5 1.3-1l3-10.7h11.7l3 10.7c.1.6.6 1 1.2 1h2.8c.8 0 1.3-.5 1.3-1.2v-.5l-9-31zm-5.8 1.3c.1-.5.3-.5.5-.5.1 0 .4 0 .5.5l4.2 15.2H116l4.2-15.2zm38.2 26.7h-.3l-7.8.3c-5.2 0-7.9-3.6-7.9-10.4v-6.6c0-6.9 2.7-10.4 7.9-10.4 2.8 0 6.6.3 8 .4h.1c.7 0 1-.3 1-1v-2.4c0-.3 0-.9-1-1a53 53 0 0 0-8.2-.8c-3.9 0-13 1.5-13 15.2v6.6c0 13.8 9.1 15.2 13 15.2 4 0 5.9-.2 8-.6.9-.1 1.4-.7 1.4-1.4v-2c0-.7-.5-1.1-1.2-1.1zm16.3-27.1h9.2c.6 0 1-.4 1-1v-2.4c0-.5-.3-1-.9-1-2-.3-6.7-.4-9.3-.4-7.3 0-10.6 3-10.6 9.3v18.4c0 6.4 3.3 9.3 10.6 9.3 1.2 0 7.2 0 9.4-.2.5-.1.8-.6.8-1.1v-2.4c0-.6-.4-1-1-1h-9.2c-5 0-5.4-1.3-5.4-4.6v-7.6h14.2c.8 0 1.4-.6 1.4-1.4v-1.8c0-.7-.6-1.4-1.4-1.4h-14.2v-6.2c0-3.2.5-4.5 5.4-4.5z" style="block-size:auto;border-block-end-color:rgb(13, 123, 198);border-block-start-color:rgb(13, 123, 198);border-bottom-color:rgb(13, 123, 198);border-inline-end-color:rgb(13, 123, 198);border-inline-start-color:rgb(13, 123, 198);border-left-color:rgb(13, 123, 198);border-right-color:rgb(13, 123, 198);border-top-color:rgb(13, 123, 198);caret-color:rgb(13, 123, 198);color:rgb(13, 123, 198);column-rule-color:rgb(13, 123, 198);d:path(&quot;M 273 53.5 L 271 53.7 C 269.5 53.7 267.8 52.9 267.8 50 V 48.3 C 267.8 45.3 269.5 44.6 270.9 44.6 L 272.9 44.8 C 273.1 44.8 273.1 44.8 273.1 45 V 45.6 L 273 45.7 L 271 45.6 C 269.8 45.6 268.9 46.3 268.9 48.3 V 50 C 268.9 52 269.8 52.7 270.9 52.7 H 272.9 L 273.2 52.8 V 53.3 C 273.2 53.4 273.1 53.5 272.9 53.5 M 279.4 48.4 C 279.4 46.4 278.5 45.6 277.2 45.6 C 275.9 45.6 275.1 46.4 275.1 48.4 V 49.9 C 275.1 51.9 275.9 52.7 277.2 52.7 S 279.4 51.9 279.4 49.9 V 48.4 Z M 277.2 53.7 C 275.3 53.7 274 52.6 274 49.9 V 48.4 C 274 45.7 275.3 44.6 277.2 44.6 C 279.2 44.6 280.5 45.7 280.5 48.4 V 49.9 C 280.5 52.6 279.1 53.7 277.2 53.7 M 288 53.6 H 287.3 C 287.1 53.6 287 53.6 286.9 53.4 L 283.2 46.4 V 53.4 L 283 53.6 H 282.3 L 282.1 53.5 V 45 C 282.1 44.8 282.3 44.7 282.5 44.7 H 283.1 C 283.5 44.7 283.5 44.7 283.6 44.9 L 287.3 51.9 V 44.9 L 287.5 44.7 H 288.2 L 288.4 44.9 V 53.3 C 288.4 53.4 288.2 53.6 288 53.6 M 292.4 53.7 L 290.4 53.5 C 290.2 53.5 290.1 53.5 290.1 53.3 V 52.8 L 290.3 52.6 L 292.3 52.7 C 293.8 52.7 294.2 52.1 294.2 51.3 C 294.2 50.7 293.8 50.3 292.7 49.7 L 291.6 49 C 290.5 48.3 289.9 47.7 289.9 46.7 C 289.9 45.3 290.9 44.7 292.8 44.7 H 294.8 C 295 44.7 295.1 44.8 295.1 45 V 45.5 L 294.9 45.7 L 292.8 45.6 C 291.6 45.6 291 45.9 291 46.7 C 291 47.3 291.4 47.7 292.3 48.2 L 293.4 48.8 C 294.8 49.7 295.4 50.3 295.4 51.3 C 295.4 52.4 294.7 53.7 292.4 53.7 M 301.7 53.6 H 299.4 C 297.7 53.6 296.9 53.1 296.9 51.5 V 46.8 C 296.9 45.3 297.7 44.6 299.4 44.6 A 34 34 0 0 1 301.9 44.9 V 45.5 L 301.7 45.6 H 299.4 C 298.1 45.6 297.9 45.9 297.9 46.8 V 48.5 H 301.6 C 301.8 48.5 301.9 48.6 301.9 48.7 V 49.2 C 301.9 49.3 301.8 49.4 301.6 49.4 H 298 V 51.4 C 298 52.4 298.2 52.7 299.5 52.7 H 301.8 L 302 52.8 V 53.5 L 301.8 53.6 M 304.5 53.6 H 303.8 L 303.6 53.4 V 44.9 S 303.6 44.7 303.8 44.7 H 304.5 L 304.7 44.9 V 53.4 L 304.5 53.6 M 311.5 53.6 H 309.2 C 307.9 53.6 306.7 53.4 306.7 51.5 V 44.9 S 306.7 44.7 306.9 44.7 H 307.5 L 307.7 44.9 V 51.5 C 307.7 52.4 308 52.7 309.2 52.7 H 311.5 L 311.7 52.8 V 53.4 S 311.7 53.6 311.5 53.6 M 320.7 48.3 C 320.7 46.2 319.7 45.6 318.2 45.6 H 317 V 52.7 H 318.3 C 319.7 52.7 320.8 52.1 320.8 50 V 48.3 Z M 318.2 53.7 L 316 53.6 L 315.8 53.3 V 45 C 315.8 44.9 315.8 44.8 316 44.7 H 318.2 C 320.4 44.7 321.8 45.7 321.8 48.3 V 50 C 321.8 52.5 320.4 53.7 318.2 53.7 M 327.7 42.4 L 326.3 43.9 L 326.1 44.1 H 325.4 V 43.9 L 326.5 42.4 L 326.8 42.2 H 327.6 L 327.7 42.3 V 42.4 M 328.3 53.6 H 326 C 324.3 53.6 323.5 53.1 323.5 51.5 V 46.8 C 323.5 45.3 324.3 44.6 326 44.6 A 34.1 34.1 0 0 1 328.5 44.9 V 45.5 L 328.3 45.6 H 326 C 324.8 45.6 324.5 45.9 324.5 46.8 V 48.5 H 328.2 C 328.4 48.5 328.5 48.6 328.5 48.7 V 49.2 C 328.5 49.3 328.4 49.4 328.2 49.4 H 324.5 V 51.4 C 324.5 52.4 324.8 52.7 326 52.7 H 328.3 L 328.5 52.8 V 53.5 L 328.3 53.6 M 334.6 47.2 C 334.6 46 333.9 45.5 332.3 45.5 H 331.1 V 49.1 H 332.3 C 334 49.1 334.6 48.6 334.6 47.4 V 47.2 Z M 332.3 50.1 L 331.1 50 V 53.4 S 331.1 53.6 330.9 53.6 H 330.3 L 330.1 53.4 V 45 C 330.1 44.8 330.1 44.7 330.3 44.7 H 332.3 C 334.3 44.7 335.7 45.3 335.7 47.2 V 47.4 C 335.7 49.4 334.3 50.1 332.3 50.1 M 339.5 45.8 C 339.5 45.6 339.5 45.6 339.3 45.6 C 339.2 45.6 339.1 45.6 339 45.8 L 338 49.8 H 340.6 L 339.6 45.8 Z M 342.5 53.6 H 341.8 S 341.6 53.6 341.6 53.4 L 340.8 50.7 H 337.8 L 337 53.4 L 336.7 53.6 H 336 S 335.8 53.6 335.8 53.4 L 338.1 45.5 C 338.3 44.8 338.8 44.6 339.3 44.6 C 339.7 44.6 340.3 44.8 340.5 45.6 L 342.7 53.3 V 53.4 C 342.7 53.5 342.7 53.6 342.5 53.6 M 348.7 47.2 C 348.7 46 347.9 45.6 346.4 45.6 H 345.1 V 49 H 346.4 C 347.9 49 348.7 48.7 348.7 47.4 V 47.3 Z M 349.9 53.6 H 349.2 C 349 53.6 349 53.6 348.9 53.4 L 346.7 49.9 H 345 V 53.4 L 344.8 53.6 H 344.1 L 343.9 53.4 V 45 C 343.9 44.8 343.9 44.7 344.2 44.7 H 346.3 C 348.2 44.7 349.7 45.3 349.7 47.2 C 349.7 48.6 348.9 49.4 347.7 49.7 L 350 53.3 V 53.4 C 350 53.5 350 53.6 349.8 53.6 M 356.5 45.6 H 354 V 53.4 S 354 53.6 353.8 53.6 H 353.2 C 353 53.6 352.9 53.5 352.9 53.4 V 45.6 H 350.6 C 350.5 45.6 350.4 45.6 350.4 45.4 V 45 C 350.4 44.9 350.4 44.8 350.6 44.8 H 356.4 C 356.5 44.8 356.6 44.8 356.6 45 V 45.5 C 356.6 45.7 356.5 45.7 356.4 45.7 M 362.6 53.6 H 360.3 C 358.6 53.6 357.7 53.1 357.7 51.5 V 46.8 C 357.7 45.3 358.6 44.6 360.3 44.6 A 34 34 0 0 1 362.7 44.9 V 45.5 L 362.6 45.6 H 360.3 C 359 45.6 358.8 45.9 358.8 46.8 V 48.5 H 362.5 L 362.7 48.7 V 49.2 C 362.7 49.3 362.7 49.4 362.5 49.4 H 358.8 V 51.4 C 358.8 52.4 359 52.7 360.3 52.7 H 362.6 L 362.7 52.8 V 53.6 M 371.3 53.6 H 370.8 A 0.2 0.2 0 0 1 370.5 53.4 V 46.3 L 368.8 49.8 C 368.7 50 368.5 50.1 368.2 50.1 H 367.7 C 367.4 50.1 367.3 50.1 367.1 49.8 L 365.4 46.2 V 53.4 L 365.2 53.6 H 364.6 A 0.2 0.2 0 0 1 364.3 53.4 V 45 C 364.3 44.9 364.5 44.7 364.7 44.7 H 365.5 C 365.7 44.7 365.8 44.7 365.8 44.9 L 367.8 49 L 368 49.1 H 368.1 L 370.1 44.9 C 370.1 44.7 370.3 44.7 370.5 44.7 H 371.2 C 371.4 44.7 371.6 44.9 371.6 45 V 53.4 S 371.5 53.6 371.3 53.6 M 378.3 53.6 H 376 C 374.3 53.6 373.4 53.1 373.4 51.5 V 46.8 C 373.4 45.3 374.4 44.6 376 44.6 A 34.2 34.2 0 0 1 378.5 44.9 V 45.5 L 378.3 45.6 H 376 C 374.7 45.6 374.5 45.9 374.5 46.8 V 48.5 H 378.2 L 378.5 48.7 V 49.2 L 378.2 49.4 H 374.5 V 51.4 C 374.5 52.4 374.7 52.7 376 52.7 H 378.3 L 378.5 52.8 V 53.5 L 378.3 53.6 M 386 53.6 H 385.2 C 385 53.6 384.9 53.6 384.9 53.4 L 381.2 46.4 H 381.1 V 53.4 S 381.1 53.6 380.9 53.6 H 380.3 L 380.1 53.5 V 45 C 380.1 44.8 380.2 44.7 380.4 44.7 H 381.1 C 381.4 44.7 381.5 44.7 381.6 44.9 L 385.2 51.9 V 44.9 L 385.5 44.7 H 386.1 L 386.3 44.9 V 53.3 C 386.3 53.4 386.2 53.6 386 53.6 M 393.3 45.6 H 390.9 V 53.4 S 390.9 53.6 390.7 53.6 H 390.1 C 389.9 53.6 389.9 53.5 389.9 53.4 V 45.6 H 387.5 C 387.4 45.6 387.3 45.6 387.3 45.4 V 45 C 387.3 44.9 387.3 44.8 387.5 44.8 H 393.3 C 393.4 44.8 393.5 44.8 393.5 45 V 45.5 C 393.5 45.7 393.5 45.7 393.3 45.7 M 396.9 45.8 C 396.9 45.6 396.8 45.6 396.6 45.6 C 396.6 45.6 396.4 45.6 396.4 45.8 L 395.4 49.8 H 398 L 396.9 45.8 Z M 399.9 53.6 H 399.2 C 399.1 53.6 399 53.6 399 53.4 L 398.2 50.7 H 395 L 394.2 53.4 L 394 53.6 H 393.3 C 393.2 53.6 393.1 53.6 393.1 53.4 L 395.3 45.5 C 395.5 44.8 396.1 44.6 396.5 44.6 C 397 44.6 397.5 44.8 397.8 45.6 L 400 53.3 V 53.4 C 400 53.5 400 53.6 399.8 53.6 M 406 53.6 H 403.7 C 402.4 53.6 401.2 53.4 401.2 51.5 V 44.9 S 401.2 44.7 401.4 44.7 H 402 L 402.2 44.9 V 51.5 C 402.2 52.4 402.4 52.7 403.7 52.7 H 406 L 406.2 52.8 V 53.4 S 406.2 53.6 406 53.6 M 47.4 48.3 C 46.4 44.9 43.7 44.4 42.1 44.4 C 40.5 44.4 37.8 44.9 36.8 48.4 L 28 79.4 V 79.9 C 28 80.6 28.5 81.1 29.2 81.1 H 32 C 32.6 81.1 33.1 80.6 33.3 80.1 L 36.3 69.4 H 47.9 L 50.9 80.1 C 51.1 80.7 51.6 81.1 52.2 81.1 H 55 C 55.7 81.1 56.2 80.6 56.2 79.9 V 79.4 L 47.4 48.4 Z M 41.6 49.6 C 41.7 49.1 41.9 49.1 42.1 49.1 C 42.2 49.1 42.4 49.1 42.6 49.6 L 46.8 64.8 H 37.4 L 41.6 49.6 Z M 79.5 76.6 H 70.3 C 65.3 76.6 64.8 75.4 64.8 72.1 V 46.1 C 64.8 45.4 64.2 44.8 63.4 44.8 H 61 C 60.2 44.8 59.6 45.4 59.6 46.1 V 72.1 C 59.6 80.3 65 81.4 70.2 81.4 C 74.5 81.4 78.2 81.2 79.6 81 C 80.1 81 80.5 80.4 80.5 79.9 V 77.7 C 80.5 77.1 80.1 76.7 79.5 76.7 Z M 96.7 61.3 L 92.3 58.7 C 88.8 56.7 87.3 55.3 87.3 53.3 C 87.3 50.3 88.9 49.3 93.9 49.3 C 96.6 49.3 99.9 49.3 102.1 49.5 C 102.9 49.5 103.4 49 103.4 48.3 V 46.3 C 103.4 45.9 103.3 45.3 102.2 45 C 100.5 44.7 96.8 44.4 93.9 44.4 C 84.1 44.4 82 49.3 82 53.4 C 82 57.6 84.7 60.1 88.8 62.6 L 93.4 65.4 C 97.8 68.1 99 69.4 99 71.4 C 99 74 98.1 76.6 92.1 76.6 C 89.9 76.6 86.5 76.6 84.3 76.4 H 84 C 83.3 76.4 82.8 76.9 82.8 77.6 V 79.5 C 82.8 80.3 83.1 80.5 84 80.8 C 86.2 81.1 88.7 81.4 92 81.4 C 102.7 81.4 104.3 75.2 104.3 71.4 C 104.3 67.4 102.2 64.7 96.6 61.4 Z M 125.9 48.3 C 124.9 44.9 122.2 44.4 120.6 44.4 C 119.1 44.4 116.3 44.9 115.3 48.4 L 106.5 79.4 V 79.9 C 106.5 80.6 107 81.1 107.7 81.1 H 110.5 C 111.1 81.1 111.7 80.6 111.8 80.1 L 114.8 69.4 H 126.5 L 129.5 80.1 C 129.6 80.7 130.1 81.1 130.7 81.1 H 133.5 C 134.3 81.1 134.8 80.6 134.8 79.9 V 79.4 L 125.8 48.4 Z M 120.1 49.6 C 120.2 49.1 120.4 49.1 120.6 49.1 C 120.7 49.1 121 49.1 121.1 49.6 L 125.3 64.8 H 116 L 120.2 49.6 Z M 158.3 76.3 H 158 L 150.2 76.6 C 145 76.6 142.3 73 142.3 66.2 V 59.6 C 142.3 52.7 145 49.2 150.2 49.2 C 153 49.2 156.8 49.5 158.2 49.6 H 158.3 C 159 49.6 159.3 49.3 159.3 48.6 V 46.2 C 159.3 45.9 159.3 45.3 158.3 45.2 A 53 53 0 0 0 150.1 44.4 C 146.2 44.4 137.1 45.9 137.1 59.6 V 66.2 C 137.1 80 146.2 81.4 150.1 81.4 C 154.1 81.4 156 81.2 158.1 80.8 C 159 80.7 159.5 80.1 159.5 79.4 V 77.4 C 159.5 76.7 159 76.3 158.3 76.3 Z M 174.6 49.2 H 183.8 C 184.4 49.2 184.8 48.8 184.8 48.2 V 45.8 C 184.8 45.3 184.5 44.8 183.9 44.8 C 181.9 44.5 177.2 44.4 174.6 44.4 C 167.3 44.4 164 47.4 164 53.7 V 72.1 C 164 78.5 167.3 81.4 174.6 81.4 C 175.8 81.4 181.8 81.4 184 81.2 C 184.5 81.1 184.8 80.6 184.8 80.1 V 77.7 C 184.8 77.1 184.4 76.7 183.8 76.7 H 174.6 C 169.6 76.7 169.2 75.4 169.2 72.1 V 64.5 H 183.4 C 184.2 64.5 184.8 63.9 184.8 63.1 V 61.3 C 184.8 60.6 184.2 59.9 183.4 59.9 H 169.2 V 53.7 C 169.2 50.5 169.7 49.2 174.6 49.2 Z&quot;);fill:rgb(27, 24, 28);font-size:36px;font-weight:700;height:auto;inline-size:auto;line-height:43.2px;outline-color:rgb(13, 123, 198);overflow-x:visible;overflow-y:visible;perspective-origin:0px 0px;text-align:center;text-decoration:none solid rgb(13, 123, 198);text-decoration-color:rgb(13, 123, 198);transform-origin:0px 0px;vertical-align:baseline;width:auto;-webkit-text-emphasis-color:rgb(13, 123, 198);-webkit-text-fill-color:rgb(13, 123, 198);-webkit-text-stroke-color:rgb(13, 123, 198);"/>
                        <path fill="none" stroke="#87888A" stroke-width=".5" stroke-miterlimit="10" d="M203.3 22.2v78.5" style="block-size:auto;border-block-end-color:rgb(13, 123, 198);border-block-start-color:rgb(13, 123, 198);border-bottom-color:rgb(13, 123, 198);border-inline-end-color:rgb(13, 123, 198);border-inline-start-color:rgb(13, 123, 198);border-left-color:rgb(13, 123, 198);border-right-color:rgb(13, 123, 198);border-top-color:rgb(13, 123, 198);caret-color:rgb(13, 123, 198);color:rgb(13, 123, 198);column-rule-color:rgb(13, 123, 198);d:path(&quot;M 203.3 22.2 V 100.7&quot;);fill:none;font-size:36px;font-weight:700;height:auto;inline-size:auto;line-height:43.2px;outline-color:rgb(13, 123, 198);overflow-x:visible;overflow-y:visible;perspective-origin:0px 0px;stroke:rgb(135, 136, 138);stroke-miterlimit:10;stroke-width:0.5px;text-align:center;text-decoration:none solid rgb(13, 123, 198);text-decoration-color:rgb(13, 123, 198);transform-origin:0px 0px;vertical-align:baseline;width:auto;-webkit-text-emphasis-color:rgb(13, 123, 198);-webkit-text-fill-color:rgb(13, 123, 198);-webkit-text-stroke-color:rgb(13, 123, 198);"/>
                    </svg>